<svg width="389" height="315" viewBox="0 0 389 315" fill="none" xmlns="http://www.w3.org/2000/svg">
<path d="M194.363 314.922C301.445 314.922 388.252 309.853 388.252 303.599C388.252 297.346 301.445 292.276 194.363 292.276C87.2807 292.276 0.473633 297.346 0.473633 303.599C0.473633 309.853 87.2807 314.922 194.363 314.922Z" fill="#252525"/>
<path d="M56.9452 154.033H258.241C262.794 154.033 266.187 150.308 265.781 145.755L253.542 8.40227C253.136 3.84927 249.079 0.124268 244.526 0.124268H43.2312C38.6782 0.124268 35.2852 3.84927 35.6912 8.40227L47.9302 145.755C48.3352 150.308 52.3932 154.033 56.9452 154.033Z" fill="#2CDF68"/>
<path d="M57.5907 154.033H258.887C263.44 154.033 266.833 150.308 266.427 145.755L254.188 8.40227C253.782 3.84927 249.725 0.124268 245.172 0.124268H43.8767C39.3237 0.124268 35.9307 3.84927 36.3367 8.40227L48.5757 145.755C48.9807 150.308 53.0377 154.033 57.5907 154.033Z" fill="#2CDF68"/>
<path opacity="0.2" d="M57.5907 154.033H258.887C263.44 154.033 266.833 150.308 266.427 145.755L254.188 8.40227C253.782 3.84927 249.725 0.124268 245.172 0.124268H43.8767C39.3237 0.124268 35.9307 3.84927 36.3367 8.40227L48.5757 145.755C48.9807 150.308 53.0377 154.033 57.5907 154.033Z" fill="black"/>
<path d="M60.719 140.324H253.315C254.972 140.324 256.196 138.98 256.049 137.323L245.984 24.3682C245.836 22.7112 244.373 21.3672 242.716 21.3672H50.119C48.462 21.3672 47.238 22.7112 47.385 24.3682L57.45 137.323C57.598 138.981 59.062 140.324 60.719 140.324Z" fill="white"/>
<path d="M127.613 230.159C130.297 238.351 126.652 244.993 118.452 244.992C163.878 244.992 209.304 244.992 254.73 244.992C262.928 244.992 266.576 238.35 263.891 230.159C218.465 230.16 173.039 230.16 127.613 230.159Z" fill="#263238"/>
<path d="M69.249 29.7153C98.457 96.5303 75.874 163.345 97.946 230.159C100.629 238.351 110.267 244.993 118.452 244.992C126.651 244.992 130.297 238.35 127.613 230.159C168.095 230.159 208.576 230.159 249.057 230.159C226.986 163.344 249.569 96.5293 220.36 29.7153C169.99 29.7153 119.62 29.7153 69.249 29.7153Z" fill="#2CDF68"/>
<path opacity="0.8" d="M69.249 29.7153C98.457 96.5303 75.874 163.345 97.946 230.159C100.629 238.351 110.267 244.993 118.452 244.992C126.651 244.992 130.297 238.35 127.613 230.159C168.095 230.159 208.576 230.159 249.057 230.159C226.986 163.344 249.569 96.5293 220.36 29.7153C169.99 29.7153 119.62 29.7153 69.249 29.7153Z" fill="white"/>
<path d="M133.696 80.3823C121.446 80.3823 109.196 80.3823 96.9462 80.3823C95.2612 68.1323 92.6562 55.8823 88.5332 43.6323C100.783 43.6323 113.033 43.6323 125.283 43.6323C129.405 55.8823 132.011 68.1323 133.696 80.3823Z" fill="#2CDF68"/>
<path opacity="0.6" d="M232.684 219.938C205.351 219.938 178.017 219.938 150.684 219.938C147.128 206.565 145.163 193.193 144.018 179.82C171.351 179.82 198.684 179.82 226.018 179.82C227.164 193.192 229.128 206.565 232.684 219.938Z" fill="#2CDF68"/>
<g opacity="0.8">
<path d="M213.713 47.7133C186.38 47.7133 159.046 47.7133 131.713 47.7133C131.291 46.3523 130.852 44.9923 130.395 43.6323C157.728 43.6323 185.061 43.6323 212.395 43.6323C212.852 44.9923 213.292 46.3533 213.713 47.7133Z" fill="#2CDF68"/>
<path d="M216.651 58.3283C189.318 58.3283 161.984 58.3283 134.651 58.3283C134.317 56.9673 133.968 55.6073 133.602 54.2473C160.935 54.2473 188.269 54.2473 215.602 54.2473C215.968 55.6073 216.317 56.9683 216.651 58.3283Z" fill="#2CDF68"/>
<path d="M200.505 68.9433C179.32 68.9433 158.134 68.9433 136.949 68.9433C136.692 67.5833 136.421 66.2223 136.136 64.8623C157.321 64.8623 178.506 64.8623 199.692 64.8623C199.977 66.2223 200.247 67.5833 200.505 68.9433Z" fill="#2CDF68"/>
</g>
<g opacity="0.2">
<path d="M222.296 93.6233C194.962 93.6233 167.629 93.6233 140.296 93.6233C140.215 92.7273 140.132 91.8303 140.043 90.9343C167.377 90.9343 194.71 90.9343 222.043 90.9343C222.132 91.8303 222.215 92.7263 222.296 93.6233Z" fill="#2CDF68"/>
<path d="M222.85 100.616C195.517 100.616 168.183 100.616 140.85 100.616C140.788 99.7203 140.722 98.8232 140.654 97.9272C167.987 97.9272 195.321 97.9272 222.654 97.9272C222.722 98.8242 222.788 99.7203 222.85 100.616Z" fill="#2CDF68"/>
<path d="M200.497 107.61C180.757 107.61 161.016 107.61 141.275 107.61C141.228 106.714 141.178 105.817 141.125 104.921C160.866 104.921 180.606 104.921 200.347 104.921C200.4 105.818 200.45 106.714 200.497 107.61Z" fill="#2CDF68"/>
<path d="M223.595 114.605C196.262 114.605 168.928 114.605 141.595 114.605C141.56 113.709 141.522 112.812 141.483 111.916C168.816 111.916 196.15 111.916 223.483 111.916C223.522 112.812 223.56 113.708 223.595 114.605Z" fill="#2CDF68"/>
<path d="M223.836 121.599C196.503 121.599 169.169 121.599 141.836 121.599C141.809 120.703 141.781 119.806 141.752 118.91C169.085 118.91 196.419 118.91 223.752 118.91C223.781 119.806 223.809 120.702 223.836 121.599Z" fill="#2CDF68"/>
<path d="M160.743 128.593C154.502 128.593 148.262 128.593 142.021 128.593C142 127.696 141.978 126.8 141.955 125.904C148.196 125.904 154.436 125.904 160.677 125.904C160.7 126.8 160.722 127.696 160.743 128.593Z" fill="#2CDF68"/>
<path d="M224.175 135.587C196.842 135.587 169.508 135.587 142.175 135.587C142.156 134.691 142.138 133.794 142.118 132.898C169.451 132.898 196.785 132.898 224.118 132.898C224.137 133.794 224.156 134.69 224.175 135.587Z" fill="#2CDF68"/>
<path d="M224.323 142.581C196.99 142.581 169.656 142.581 142.323 142.581C142.303 141.685 142.284 140.788 142.265 139.892C169.598 139.892 196.932 139.892 224.265 139.892C224.284 140.788 224.303 141.684 224.323 142.581Z" fill="#2CDF68"/>
<path d="M224.489 149.575C197.156 149.575 169.822 149.575 142.489 149.575C142.466 148.678 142.443 147.782 142.421 146.886C169.754 146.886 197.088 146.886 224.421 146.886C224.443 147.782 224.466 148.678 224.489 149.575Z" fill="#2CDF68"/>
<path d="M224.698 156.569C197.365 156.569 170.031 156.569 142.698 156.569C142.668 155.673 142.638 154.776 142.611 153.88C169.944 153.88 197.278 153.88 224.611 153.88C224.639 154.776 224.668 155.672 224.698 156.569Z" fill="#2CDF68"/>
<path d="M224.975 163.563C197.642 163.563 170.308 163.563 142.975 163.563C142.934 162.667 142.896 161.77 142.859 160.874C170.192 160.874 197.526 160.874 224.859 160.874C224.896 161.77 224.934 162.666 224.975 163.563Z" fill="#2CDF68"/>
<path d="M177.955 170.557C166.418 170.557 154.881 170.557 143.344 170.557C143.29 169.661 143.238 168.764 143.19 167.868C154.727 167.868 166.264 167.868 177.801 167.868C177.85 168.764 177.901 169.66 177.955 170.557Z" fill="#2CDF68"/>
</g>
<path d="M312.673 50.2771C313.571 51.3741 314.333 52.3491 315.104 53.4121C315.872 54.4551 316.622 55.5041 317.357 56.5671C318.821 58.6961 320.217 60.8721 321.525 63.1211C322.822 65.3791 324.094 67.6561 325.203 70.0641C326.337 72.4541 327.386 74.9101 328.221 77.5261L328.542 78.5001L328.622 78.7431L328.745 79.1631C328.837 79.4801 328.897 79.7811 328.952 80.0851C329.165 81.2991 329.128 82.3671 329.021 83.3301C328.777 85.2501 328.224 86.7681 327.634 88.1671C326.438 90.9401 324.921 93.1971 323.366 95.3611C320.183 99.6381 316.681 103.305 312.765 106.749L308.696 103.025C311.376 99.0581 314.04 94.9061 316.211 90.8241C317.301 88.7961 318.239 86.7071 318.815 84.8401C319.094 83.9191 319.244 83.0321 319.224 82.4771C319.221 82.2071 319.179 82.0201 319.143 82.0171C319.134 82.0171 319.132 82.0141 319.126 82.0361C319.116 82.0241 319.144 82.0951 319.11 82.0131L319.028 81.8201L318.7 81.0501C316.961 76.9431 314.604 72.8581 312.084 68.8751C310.818 66.8801 309.479 64.9141 308.128 62.9571C306.798 61.0171 305.32 59.0341 303.994 57.2561L312.673 50.2771Z" fill="#B97964"/>
<path d="M311.209 101.771L304.511 103.714L309.849 109.959C309.849 109.959 314.364 107.821 313.908 104.292L311.209 101.771Z" fill="#B97964"/>
<path d="M299.708 109.085L305.782 113.921L309.849 109.959L304.511 103.715L299.708 109.085Z" fill="#B97964"/>
<path d="M294.818 24.8862C293.764 30.2602 292.713 40.1082 296.473 43.6942C296.473 43.6942 295.004 49.1462 285.018 49.1462C274.037 49.1462 279.77 43.6952 279.77 43.6952C285.763 42.2642 285.608 37.8172 284.564 33.6422L294.818 24.8862Z" fill="#B97964"/>
<path d="M297.911 45.5651C298.698 43.8391 299.565 41.8641 297.772 41.2461C295.8 40.5651 285.004 39.8711 281.282 41.1491C277.56 42.4271 278.615 45.9271 278.615 45.9271L297.911 45.5651Z" fill="#2CDF68"/>
<path d="M332.627 282.382C332.053 282.869 331.422 283.254 330.967 283.154C330.776 283.112 330.529 282.968 330.438 282.52C330.39 282.284 330.442 282.062 330.592 281.857C331.247 280.969 333.692 280.718 333.796 280.707C333.864 280.7 333.93 280.734 333.964 280.794C333.998 280.853 333.994 280.928 333.954 280.983C333.726 281.297 333.205 281.892 332.627 282.382ZM331.021 281.909C330.962 281.959 330.912 282.011 330.872 282.065C330.781 282.188 330.751 282.315 330.779 282.452C330.844 282.772 330.993 282.804 331.042 282.815C331.549 282.925 332.697 281.961 333.414 281.109C332.679 281.221 331.53 281.477 331.021 281.909Z" fill="#2CDF68"/>
<path d="M333.927 281.014C333.905 281.032 333.879 281.046 333.85 281.052C333.003 281.229 330.841 280.953 330.43 280.228C330.356 280.096 330.273 279.83 330.557 279.522C330.741 279.322 330.98 279.218 331.266 279.213C332.368 279.192 333.874 280.695 333.937 280.759C333.982 280.804 333.999 280.87 333.98 280.932C333.971 280.964 333.952 280.993 333.927 281.014ZM330.869 279.703C330.849 279.72 330.83 279.738 330.812 279.758C330.658 279.925 330.71 280.017 330.732 280.057C330.975 280.485 332.476 280.807 333.423 280.755C332.957 280.338 331.978 279.548 331.272 279.562C331.111 279.564 330.978 279.611 330.869 279.703Z" fill="#2CDF68"/>
<path d="M277.541 296.475C276.599 296.475 275.688 296.345 275.383 295.922C275.276 295.774 275.192 295.521 275.397 295.161C275.512 294.959 275.698 294.822 275.949 294.754C277.171 294.421 279.739 295.885 279.848 295.947C279.911 295.983 279.945 296.055 279.933 296.126C279.921 296.198 279.867 296.254 279.795 296.269C279.326 296.362 278.42 296.475 277.541 296.475ZM276.377 295.05C276.255 295.05 276.141 295.062 276.04 295.09C275.88 295.134 275.768 295.213 275.7 295.334C275.577 295.55 275.621 295.657 275.666 295.719C276.008 296.194 277.865 296.204 279.231 296.012C278.549 295.661 277.235 295.05 276.377 295.05Z" fill="#2CDF68"/>
<path d="M279.761 296.272C279.737 296.272 279.713 296.267 279.69 296.257C278.803 295.859 277.047 294.271 277.181 293.44C277.212 293.245 277.351 293.002 277.829 292.954C278.184 292.918 278.509 293.018 278.794 293.252C279.729 294.019 279.927 295.998 279.934 296.082C279.94 296.144 279.913 296.204 279.862 296.24C279.833 296.261 279.797 296.272 279.761 296.272ZM277.969 293.294C277.935 293.294 277.9 293.296 277.864 293.299C277.551 293.331 277.531 293.454 277.524 293.495C277.443 293.993 278.637 295.242 279.542 295.786C279.448 295.208 279.186 294.024 278.572 293.521C278.388 293.369 278.189 293.294 277.969 293.294Z" fill="#2CDF68"/>
<path d="M287.839 296.098H280.493L279.761 279.085H287.107L287.839 296.098Z" fill="#B97964"/>
<path d="M341.34 278.869L334.233 280.726L326.36 265.198L333.468 263.342L341.34 278.869Z" fill="#B97964"/>
<path d="M333.68 279.879L339.973 274.539C340.202 274.345 340.535 274.336 340.775 274.517L346.106 278.557C346.659 278.976 346.668 279.809 346.131 280.249C343.902 282.076 342.725 282.852 339.958 285.201C338.256 286.646 333.124 291.607 330.773 293.602C328.474 295.553 326.142 293.533 326.926 292.506C330.441 287.9 332.735 283.411 333.063 280.996C333.122 280.559 333.345 280.163 333.68 279.879Z" fill="#263238"/>
<path d="M280.541 295.247H288.564C288.864 295.247 289.124 295.456 289.189 295.749L290.64 302.279C290.79 302.956 290.276 303.598 289.583 303.586C286.689 303.537 282.507 303.367 278.87 303.367C274.617 303.367 272.759 303.599 267.771 303.599C264.755 303.599 263.918 300.55 265.18 300.274C270.927 299.017 273.805 298.882 278.771 295.82C279.311 295.487 279.907 295.247 280.541 295.247Z" fill="#263238"/>
<path d="M270.293 60.0071C267.848 64.3331 265.292 68.4241 262.548 72.4991C259.8 76.5521 256.909 80.5321 253.73 84.3931C253.341 84.8771 252.922 85.3541 252.513 85.8321L251.898 86.5491L251.591 86.9071L251.076 87.4531C249.671 88.8761 248.263 89.7261 246.912 90.4121C244.214 91.7571 241.651 92.4721 239.106 93.0461C234.015 94.1331 229.107 94.5041 224.037 94.4001L223.487 88.9121C227.946 87.7111 232.521 86.3771 236.645 84.7751C238.686 83.9611 240.672 83.0501 242.166 82.0471C242.896 81.5491 243.485 81.0151 243.712 80.6731L244.557 79.5131C244.892 79.0501 245.232 78.5981 245.558 78.1191C248.21 74.3571 250.762 70.4241 253.255 66.4381C255.754 62.4751 258.245 58.4011 260.646 54.4431L270.293 60.0071Z" fill="#B97964"/>
<path d="M310.235 45.3553C317.12 46.9343 325.017 65.7063 325.017 65.7063L311.188 75.1842C311.188 75.1842 305.949 67.8553 302.054 59.6553C297.973 51.0633 303.195 43.7413 310.235 45.3553Z" fill="#263238"/>
<path opacity="0.3" d="M305.301 57.3252L311.841 74.7342L311.191 75.1842C311.191 75.1842 308.361 71.2142 305.301 65.8542V57.3252Z" fill="black"/>
<path d="M269.078 45.7332C269.078 45.7332 261.259 54.5652 268.643 109.23C280.482 109.23 302.175 109.23 307.936 109.23C308.207 103.198 304.417 73.7742 310.234 45.3542C310.234 45.3542 303.499 44.0022 297.08 43.6932C292.059 43.4512 284.79 43.2912 280.377 43.6942C274.558 44.2252 269.078 45.7332 269.078 45.7332Z" fill="#263238"/>
<path opacity="0.3" d="M273.441 61.5371C273.311 61.6971 272.451 70.5671 265.681 78.3571C265.521 74.8371 265.461 71.6771 265.471 68.8471L273.441 61.5371Z" fill="black"/>
<path d="M276.828 51.6893C277.797 58.6453 264.091 76.4153 264.091 76.4153L250.319 66.9363C250.319 66.9363 254.137 57.1433 260.57 50.7263C267.914 43.3993 275.774 44.1183 276.828 51.6893Z" fill="#263238"/>
<path d="M223.929 88.8502L216.234 87.9192L216.446 97.3012C216.446 97.3012 222.507 97.8212 225.802 93.6072L223.929 88.8502Z" fill="#B97964"/>
<path d="M208.552 90.2072L211.548 97.8002L216.447 97.3002L216.235 87.9192L208.552 90.2072Z" fill="#B97964"/>
<path opacity="0.2" d="M279.763 279.09L280.173 288.655H287.522L287.112 279.09H279.763Z" fill="black"/>
<path opacity="0.2" d="M333.472 263.346L326.361 265.203L330.723 273.798L337.533 271.348L333.472 263.346Z" fill="black"/>
<path d="M295.456 16.7983C295.009 24.0753 295.117 28.3573 291.442 32.0923C285.913 37.7103 276.931 34.3783 275.194 27.1143C273.631 20.5763 274.625 9.77331 281.748 6.87731C288.766 4.02431 295.903 9.52131 295.456 16.7983Z" fill="#B97964"/>
<path d="M282.582 109.231C282.582 109.231 290.919 165.373 295.496 186.406C300.508 209.439 326.013 271.064 326.013 271.064L338.811 266.937C338.811 266.937 320.395 211.299 317.535 188.494C314.431 163.744 307.936 109.231 307.936 109.231H282.582Z" fill="#2CDF68"/>
<path d="M323.294 268.354C323.239 268.372 326.23 272.827 326.23 272.827L340.609 268.092L338.903 263.799L323.294 268.354Z" fill="#263238"/>
<path opacity="0.3" d="M287.851 129.234C297.491 131.124 296.471 167.074 295.311 185.564C292.531 172.494 288.461 147.344 285.681 129.494C286.321 129.174 287.041 129.074 287.851 129.234Z" fill="black"/>
<path d="M268.643 109.231C268.643 109.231 265.162 164.158 265.961 186.561C266.792 209.863 277.401 286.162 277.401 286.162H289.846C289.846 286.162 287.833 211.225 288.387 188.34C288.991 163.391 294.473 109.232 294.473 109.232H268.643V109.231Z" fill="#2CDF68"/>
<path d="M275.006 281.204C274.948 281.204 275.708 286.371 275.708 286.371H290.846L291.255 281.76L275.006 281.204Z" fill="#263238"/>
</svg>
