<svg width="389" height="319" viewBox="0 0 389 319" fill="none" xmlns="http://www.w3.org/2000/svg">
<path d="M162.633 54.0064C162.427 54.5984 162.575 55.1974 162.962 55.3444C163.349 55.4914 163.83 55.1294 164.036 54.5374C164.242 53.9454 164.094 53.3464 163.707 53.1994C163.319 53.0534 162.838 53.4144 162.633 54.0064Z" fill="#263238"/>
<path d="M163.523 53.1675L165.089 53.2965C165.089 53.2965 163.973 54.1315 163.523 53.1675Z" fill="#263238"/>
<path d="M162.931 54.7715C162.931 54.7715 163.051 57.7015 163.731 59.3505C162.695 59.7845 161.481 58.9475 161.481 58.9475L162.931 54.7715Z" fill="#BA8765"/>
<path d="M164.571 51.7053C164.432 51.6813 164.313 51.5773 164.275 51.4323C163.865 49.8243 162.612 49.3333 162.559 49.3123C162.368 49.2403 162.271 49.0273 162.342 48.8373C162.413 48.6463 162.625 48.5483 162.816 48.6183C162.884 48.6433 164.484 49.2513 164.992 51.2493C165.043 51.4473 164.923 51.6493 164.725 51.6993C164.674 51.7133 164.621 51.7143 164.571 51.7053Z" fill="#263238"/>
<path d="M142.091 56.5234C142.237 61.2474 141.755 69.7574 138.052 72.1734C138.052 72.1734 138.541 77.0314 147.044 78.6784C156.394 80.4894 152.275 74.9284 152.275 74.9284C147.372 72.7284 148.126 68.9894 149.599 65.6264L142.091 56.5234Z" fill="#F5D3BC"/>
<path d="M67.3866 263.968L63.2756 256.066C63.1256 255.778 62.8106 255.646 62.5176 255.747L55.9805 258.006C55.3025 258.24 54.9965 259.108 55.3535 259.766C56.8325 262.497 57.6806 263.743 59.4886 267.218C60.6006 269.356 62.0106 272.591 63.5466 275.543C65.0486 278.43 67.9986 277.177 67.6156 275.814C65.8986 269.703 67.0326 268.006 67.5796 265.361C67.6776 264.885 67.6056 264.389 67.3866 263.968Z" fill="#263238"/>
<path d="M166.849 45.6293C165.923 48.3603 161.875 49.4563 157.807 48.0763C153.739 46.6973 151.193 43.3653 152.119 40.6333C153.045 37.9023 157.093 36.8063 161.161 38.1863C165.228 39.5663 167.775 42.8983 166.849 45.6293Z" fill="#263238"/>
<path d="M143.37 44.8774C141.292 52.3194 140.254 55.4204 142.633 60.5444C146.213 68.2524 155.797 69.4584 160.054 62.8564C163.886 56.9134 166.64 45.7414 160.521 40.1514C154.493 34.6434 145.448 37.4354 143.37 44.8774Z" fill="#F5D3BC"/>
<path d="M154.983 36.1944C151.947 37.9144 145.615 27.1394 137.705 36.1944C132.042 42.6774 135.649 52.2024 135.649 52.2024C135.649 52.2024 131.147 44.2724 127.538 48.1384C122.844 53.1674 127.705 71.0274 143.205 69.8054C158.705 68.5834 157.218 55.9934 157.218 55.9934C157.218 55.9934 164.478 48.6094 164.114 42.0274C163.836 37.0174 159.983 33.3614 154.983 36.1944Z" fill="#263238"/>
<path d="M156.867 51.2683C156.432 52.6043 156.568 54.2113 156.997 55.4813C157.643 57.3913 159.111 57.4033 159.89 56.0823C160.592 54.8943 161.101 52.4673 159.991 50.9313C158.898 49.4173 157.364 49.7413 156.867 51.2683Z" fill="#F5D3BC"/>
<path d="M194.363 318.922C301.445 318.922 388.252 313.853 388.252 307.599C388.252 301.346 301.445 296.276 194.363 296.276C87.2807 296.276 0.473633 301.346 0.473633 307.599C0.473633 313.853 87.2807 318.922 194.363 318.922Z" fill="#252525"/>
<path d="M321.915 0.51123H206.826C198.788 0.51123 191.784 7.08823 191.263 15.1262L173.403 290.689C172.882 298.728 179.033 305.304 187.071 305.304H302.159C310.197 305.304 317.201 298.727 317.722 290.689L330.558 92.6342C331.643 92.2542 332.477 91.2472 332.554 90.0602L334.851 54.6252C334.928 53.4382 334.225 52.4312 333.189 52.0502L335.582 15.1262C336.104 7.08923 329.953 0.51123 321.915 0.51123Z" fill="#2CDF68"/>
<path d="M180.235 98.2783H182.488C183.915 98.2783 185.158 97.1103 185.25 95.6843L186.209 80.8933C186.301 79.4663 185.21 78.2993 183.783 78.2993H181.53C180.103 78.2993 178.86 79.4673 178.768 80.8933L177.809 95.6843C177.716 97.1103 178.808 98.2783 180.235 98.2783Z" fill="#2CDF68"/>
<path d="M296.043 305.305H180.955C172.917 305.305 166.766 298.728 167.287 290.69L185.147 15.1272C185.668 7.0892 192.671 0.512207 200.71 0.512207H315.798C323.837 0.512207 329.987 7.0892 329.466 15.1272L311.606 290.69C311.085 298.728 304.082 305.305 296.043 305.305Z" fill="#263238"/>
<path opacity="0.2" d="M246.349 293.574C250.38 289.671 250.683 283.445 247.026 279.668C243.368 275.89 237.136 275.991 233.105 279.893C229.074 283.796 228.771 290.022 232.429 293.799C236.086 297.577 242.319 297.476 246.349 293.574Z" fill="white"/>
<path d="M306.447 269.528H175.61C173.729 269.528 172.239 267.938 172.36 266.061L187.676 29.7413C187.787 28.0283 189.209 26.6953 190.926 26.6953H321.763C323.644 26.6953 325.134 28.2853 325.013 30.1623L309.697 266.482C309.585 268.195 308.164 269.528 306.447 269.528Z" fill="#D5F9E1"/>
<path opacity="0.2" d="M269.962 176.375C284.595 162.208 285.694 139.606 272.416 125.891C259.138 112.175 236.511 112.541 221.878 126.708C207.245 140.875 206.147 163.477 219.425 177.192C232.703 190.908 255.329 190.542 269.962 176.375Z" fill="#2CDF68"/>
<path opacity="0.2" d="M242.329 206.621C211.957 206.621 188.849 181.912 190.818 151.54C192.786 121.168 219.097 96.4592 249.469 96.4592C279.84 96.4592 302.948 121.168 300.979 151.54C299.011 181.912 272.7 206.621 242.329 206.621ZM249.404 97.4592C219.584 97.4592 193.75 121.719 191.818 151.54C189.885 181.36 212.574 205.621 242.394 205.621C272.214 205.621 298.046 181.361 299.979 151.54C301.912 121.72 279.224 97.4592 249.404 97.4592Z" fill="#2CDF68"/>
<path d="M237.371 168.847L234.393 163.066C227.895 150.454 212.919 139.181 207.697 135.902L212.637 128.511C218.821 132.394 231.193 142.006 238.958 153.42C253.298 136.433 273.58 118.91 300.737 100.023L305.367 107.002C276.349 127.183 255.496 145.635 241.615 163.414L237.371 168.847Z" fill="#2CDF68"/>
<path d="M124.1 83.4063C122.411 85.1303 120.6 87.0373 118.937 88.9423C117.246 90.8533 115.591 92.7943 114.023 94.7923C112.45 96.7893 110.969 98.8353 109.545 100.904L108.508 102.472L107.536 104.066C107.202 104.595 106.901 105.134 106.612 105.677L105.811 107.149C105.543 107.683 105.348 108.706 105.261 109.777C105.172 110.863 105.19 112.052 105.264 113.259C105.419 115.681 105.773 118.197 106.225 120.709C106.659 123.23 107.202 125.761 107.812 128.282C108.388 130.807 109.055 133.352 109.716 135.835L106.011 137.222C103.75 132.302 101.913 127.298 100.392 122.059C99.6601 119.434 99.0161 116.758 98.6281 113.932C98.4401 112.515 98.3041 111.064 98.3151 109.514C98.3391 107.96 98.4571 106.318 99.1841 104.4C99.4101 103.843 99.5371 103.616 99.6931 103.283L100.15 102.334C100.45 101.697 100.761 101.068 101.1 100.462L102.096 98.6253L103.151 96.8353C104.582 94.4703 106.104 92.1733 107.763 90.0013C109.407 87.8153 111.1 85.6783 112.891 83.6263C114.715 81.5743 116.497 79.6143 118.572 77.6433L124.1 83.4063Z" fill="#F5D3BC"/>
<path d="M124.53 71.3504C119.111 71.5964 113.967 80.5894 113.967 80.5894L121.122 95.2054C121.122 95.2054 130.821 87.1224 130.945 79.1824C131.027 74.0194 129.859 71.1084 124.53 71.3504Z" fill="#2CDF68"/>
<path opacity="0.7" d="M124.53 71.3504C119.111 71.5964 113.967 80.5894 113.967 80.5894L121.122 95.2054C121.122 95.2054 130.821 87.1224 130.945 79.1824C131.027 74.0194 129.859 71.1084 124.53 71.3504Z" fill="white"/>
<path opacity="0.2" d="M125.823 81.8614C124.243 84.2514 123.483 90.4515 123.243 93.2115C125.043 91.4115 127.563 88.5415 129.213 85.3015C128.173 82.6315 126.863 80.2914 125.823 81.8614Z" fill="black"/>
<path d="M108.689 134.269L115.28 136.227L110.894 140.668C110.894 140.668 106.146 139.204 105.483 135.976L108.689 134.269Z" fill="#F5D3BC"/>
<path d="M119.27 141.301L118.16 145.546L110.895 140.668L115.28 136.227L119.27 141.301Z" fill="#F5D3BC"/>
<path d="M169.879 88.8865C170.727 91.1845 171.682 93.6625 172.698 96.0125C173.708 98.3885 174.757 100.745 175.894 103.05C177.029 105.358 178.247 107.604 179.504 109.813C180.148 110.906 180.802 111.992 181.502 113.033C181.839 113.568 182.191 114.086 182.561 114.585L183.105 115.346L183.377 115.727L183.513 115.917L183.604 116.023C184.04 116.59 184.895 117.296 185.82 117.946C186.758 118.601 187.807 119.225 188.9 119.814C191.097 120.986 193.44 122.063 195.831 123.068C198.219 124.089 200.661 125.041 203.131 125.937C205.585 126.865 208.099 127.73 210.563 128.582L209.637 132.428C204.257 131.546 199.03 130.291 193.783 128.701C191.17 127.878 188.563 126.969 185.967 125.811C184.669 125.226 183.37 124.581 182.064 123.803C180.756 123.011 179.444 122.117 178.131 120.669L177.891 120.401L177.725 120.193L177.394 119.778L176.732 118.947C176.281 118.396 175.856 117.833 175.452 117.26C174.608 116.13 173.827 114.971 173.058 113.806C171.54 111.469 170.12 109.08 168.867 106.625C167.598 104.177 166.39 101.706 165.299 99.1855C164.223 96.6365 163.208 94.1615 162.307 91.4265L169.879 88.8865Z" fill="#F5D3BC"/>
<path d="M209.239 128.524L215.141 126.237L214.85 133.051C214.85 133.051 210.074 134.325 207.856 131.91L209.239 128.524Z" fill="#F5D3BC"/>
<path d="M219.589 128.579L221.615 132.931L214.851 133.051L215.142 126.237L219.589 128.579Z" fill="#F5D3BC"/>
<path d="M121.746 299.254L129.554 299.83L131.873 281.9L124.065 281.325L121.746 299.254Z" fill="#B55B52"/>
<path d="M59.8838 258.694L64.9828 264.75L80.1268 255.019L75.0278 248.963L59.8838 258.694Z" fill="#B55B52"/>
<path d="M130.041 298.718H121.265C120.946 298.718 120.681 298.94 120.628 299.252L119.45 306.196C119.328 306.916 119.93 307.598 120.667 307.585C123.728 307.532 125.207 307.353 129.067 307.353C131.441 307.353 136.346 307.6 139.626 307.6C142.833 307.6 143.163 304.358 141.805 304.064C135.717 302.747 133.354 300.932 131.336 299.199C130.971 298.886 130.508 298.718 130.041 298.718Z" fill="#263238"/>
<path opacity="0.2" d="M131.871 281.905L130.584 291.869L122.8 291.089L124.06 281.329L131.871 281.905Z" fill="black"/>
<path opacity="0.2" d="M75.0215 248.965L80.1235 255.023L73.8566 259.046L68.5605 253.113L75.0215 248.965Z" fill="black"/>
<path d="M122.332 118.914C128.387 120.084 141.23 122.574 153.652 124.984C168.452 81.4143 164.91 80.0043 164.91 80.0043C164.91 80.0043 161.768 78.2543 157.802 76.7043C157.65 76.6443 157.509 76.5943 157.377 76.5443C155.375 75.8143 154.952 75.7043 152.269 74.9243C147.657 73.8343 143.36 72.9443 138.048 72.1743C137.707 72.1243 137.365 72.0743 137.034 72.0343C136.07 71.9143 135.118 71.8143 134.195 71.7243C133.573 71.6543 132.952 71.6143 132.361 71.5743C131.66 71.5343 130.978 71.4943 130.338 71.4643C126.913 71.2943 124.465 71.3443 124.465 71.3443C126.259 98.5343 124.95 106.344 122.332 118.914Z" fill="#2CDF68"/>
<path opacity="0.7" d="M122.332 118.914C128.387 120.084 141.23 122.574 153.652 124.984C168.452 81.4143 164.91 80.0043 164.91 80.0043C164.91 80.0043 161.768 78.2543 157.802 76.7043C157.65 76.6443 157.509 76.5943 157.377 76.5443C155.375 75.8143 154.952 75.7043 152.269 74.9243C147.657 73.8343 143.36 72.9443 138.048 72.1743C137.707 72.1243 137.365 72.0743 137.034 72.0343C136.07 71.9143 135.118 71.8143 134.195 71.7243C133.573 71.6543 132.952 71.6143 132.361 71.5743C131.66 71.5343 130.978 71.4943 130.338 71.4643C126.913 71.2943 124.465 71.3443 124.465 71.3443C126.259 98.5343 124.95 106.344 122.332 118.914Z" fill="white"/>
<path opacity="0.2" d="M160.443 90.1514L157.613 89.6914C157.583 93.4214 159.033 99.8214 160.413 103.891C161.583 99.9114 162.493 96.6014 163.183 93.8304L160.443 90.1514Z" fill="black"/>
<path d="M163.857 79.4464C168.483 80.9304 171.852 90.0914 173.117 94.0434L164.15 104.607C164.15 104.607 154.897 91.3604 156.32 87.2524C157.802 82.9744 161.61 78.7254 163.857 79.4464Z" fill="#2CDF68"/>
<path opacity="0.7" d="M163.857 79.4464C168.483 80.9304 171.852 90.0914 173.117 94.0434L164.15 104.607C164.15 104.607 154.897 91.3604 156.32 87.2524C157.802 82.9744 161.61 78.7254 163.857 79.4464Z" fill="white"/>
<path d="M145.382 123.381C145.382 123.381 142.042 134.961 137.752 150.241C134.902 160.421 131.622 172.241 128.632 183.371C126.922 189.741 125.312 195.881 123.922 201.361C116.062 232.411 76.8625 259.101 76.8625 259.101L69.2725 250.751C69.2725 250.751 95.6125 228.571 103.232 199.601C118.702 140.791 110.002 130.871 122.332 118.921L145.382 123.381Z" fill="#263238"/>
<path opacity="0.2" d="M141.983 133.741C140.823 138.231 139.363 143.901 137.753 150.241C134.903 160.421 131.623 172.241 128.633 183.371C127.353 169.171 126.593 143.061 137.083 134.941C139.143 133.341 140.773 133.031 141.983 133.741Z" fill="black"/>
<path d="M77.4957 260.295L68.0127 249.859L70.8787 246.984L82.5077 257.944L77.4957 260.295Z" fill="#2CDF68"/>
<path opacity="0.7" d="M77.4957 260.295L68.0127 249.859L70.8787 246.984L82.5077 257.944L77.4957 260.295Z" fill="white"/>
<path d="M68.7939 268.214C68.7009 268.209 68.6069 268.191 68.5149 268.157C67.5789 267.819 66.9909 266.043 66.7239 265.015C66.7049 264.943 66.7309 264.867 66.7899 264.821C66.8499 264.776 66.9299 264.77 66.9939 264.808C67.2749 264.97 69.7359 266.417 69.7869 267.42C69.7979 267.643 69.6999 267.835 69.5029 267.977C69.2669 268.147 69.0289 268.226 68.7939 268.214ZM67.2049 265.367C67.6089 266.727 68.1349 267.627 68.6399 267.809C68.8469 267.885 69.0589 267.841 69.2859 267.677C69.4089 267.589 69.4209 267.503 69.4169 267.438C69.3909 266.908 68.1739 265.976 67.2049 265.367Z" fill="#2CDF68"/>
<path d="M153.181 124.983C153.181 124.983 155.131 186.804 150.763 210.089C146.22 234.309 132.384 289.405 132.384 289.405L121.122 287.951C121.122 287.951 128.244 232.294 131.267 208.228C134.563 181.992 130.245 120.54 130.245 120.54L153.181 124.983Z" fill="#263238"/>
<path d="M134.78 290.048L118.728 287.976L118.927 284.162L136.389 284.923L134.78 290.048Z" fill="#2CDF68"/>
<path opacity="0.7" d="M134.78 290.048L118.728 287.976L118.927 284.162L136.389 284.923L134.78 290.048Z" fill="white"/>
<path d="M69.174 265.791C68.302 265.747 67.258 265.427 66.8 265.122C66.746 265.086 66.715 265.023 66.718 264.958C66.722 264.893 66.759 264.834 66.817 264.804C66.899 264.761 68.851 263.755 69.912 264.161C70.201 264.271 70.402 264.472 70.51 264.757C70.679 265.202 70.478 265.448 70.343 265.556C70.094 265.754 69.661 265.816 69.174 265.791ZM67.307 264.98C68.168 265.378 69.691 265.602 70.112 265.267C70.182 265.211 70.251 265.118 70.164 264.889C70.094 264.704 69.968 264.58 69.78 264.508C69.15 264.267 67.975 264.68 67.307 264.98Z" fill="#2CDF68"/>
<path d="M132.946 300.085C132.085 300.085 131.154 299.937 130.493 299.805C130.416 299.79 130.357 299.726 130.346 299.648C130.335 299.57 130.374 299.494 130.445 299.458C130.802 299.274 133.967 297.68 134.905 298.213C135.087 298.316 135.19 298.487 135.204 298.707C135.228 299.076 135.108 299.377 134.847 299.605C134.437 299.964 133.72 300.085 132.946 300.085ZM131.112 299.542C132.831 299.828 134.117 299.753 134.603 299.328C134.775 299.178 134.85 298.981 134.834 298.73C134.828 298.634 134.795 298.577 134.722 298.536C134.212 298.247 132.41 298.926 131.112 299.542Z" fill="#2CDF68"/>
<path d="M130.529 299.808C130.491 299.808 130.452 299.796 130.42 299.773C130.367 299.734 130.338 299.67 130.345 299.604C130.361 299.46 130.73 296.08 132.62 296.279C133.126 296.331 133.271 296.586 133.304 296.792C133.446 297.674 131.557 299.367 130.605 299.792C130.58 299.802 130.554 299.808 130.529 299.808ZM132.475 296.641C131.349 296.641 130.904 298.496 130.766 299.289C131.739 298.708 133.024 297.379 132.939 296.85C132.932 296.808 132.912 296.68 132.583 296.646C132.546 296.643 132.51 296.641 132.475 296.641Z" fill="#2CDF68"/>
<path d="M122.167 116.998L120.294 119.512C120.149 119.707 120.37 119.977 120.732 120.048L153.58 126.41C153.862 126.465 154.119 126.372 154.166 126.199L154.909 123.466C154.96 123.277 154.743 123.066 154.434 123.006L122.716 116.863C122.483 116.818 122.261 116.872 122.167 116.998Z" fill="#2CDF68"/>
<path d="M125.845 121.349L124.995 121.184C124.826 121.151 124.711 121.04 124.74 120.936L125.737 117.391C125.766 117.287 125.928 117.229 126.098 117.262L126.948 117.427C127.117 117.46 127.232 117.572 127.203 117.675L126.206 121.22C126.176 121.324 126.014 121.382 125.845 121.349Z" fill="#263238"/>
<path d="M147.296 125.554L146.447 125.389C146.278 125.356 146.163 125.245 146.192 125.141L147.189 121.596C147.218 121.492 147.38 121.434 147.55 121.467L148.399 121.632C148.568 121.665 148.683 121.776 148.654 121.88L147.657 125.424C147.627 125.529 147.465 125.587 147.296 125.554Z" fill="#263238"/>
</svg>
