<svg width="394" height="285" viewBox="0 0 394 285" fill="none" xmlns="http://www.w3.org/2000/svg">
<path d="M285.918 68.6183L272.426 43.1069V243.52H285.918V68.6183Z" fill="#F3F8FF"/>
<path d="M265.423 68.6183L272.426 43.1069V243.52H265.423V68.6183Z" fill="#E3EEFF"/>
<path d="M303.416 121.817L241.537 109.062V243.52H303.416V121.817Z" fill="#F3F8FF"/>
<path d="M209.423 243.52H241.537L241.537 109.062H209.423L209.423 243.52Z" fill="#E3EEFF"/>
<path d="M148.644 23.2808H110.184V243.52H148.644V23.2808Z" fill="#F3F8FF"/>
<path d="M90.2236 243.52H110.184L110.184 23.2812H90.2236L90.2236 243.52Z" fill="#E3EEFF"/>
<path d="M373.814 80.4614H344.648V243.52H361.862L373.814 80.4614Z" fill="#F3F8FF"/>
<path d="M329.512 243.52H344.649V80.4619H329.512V243.52Z" fill="#E3EEFF"/>
<path d="M286.99 243.52C286.99 243.52 287.723 237.025 295.696 233.682C292.428 238.39 293.14 243.52 293.14 243.52H286.99Z" fill="#E3EEFF"/>
<path d="M282.41 243.52C282.41 243.52 282.944 232.614 292.649 228.656C288.312 234.251 288.56 243.52 288.56 243.52H282.41Z" fill="#E3EEFF"/>
<path d="M194.363 284.166C301.445 284.166 388.252 279.604 388.252 273.976C388.252 268.347 301.445 263.785 194.363 263.785C87.2807 263.785 0.473633 268.347 0.473633 273.976C0.473633 279.604 87.2807 284.166 194.363 284.166Z" fill="#252525"/>
<path opacity="0.7" d="M189.056 13.6964L88.0127 2.58594L96.2257 262.1L183.816 270.936L189.056 13.6964Z" fill="#E6E6E6"/>
<path opacity="0.7" d="M290.882 4.10352L189.056 13.6966L183.816 270.936L271.994 264.218L290.882 4.10352Z" fill="#E6E6E6"/>
<path opacity="0.7" d="M391.563 15.2473L290.882 4.10352L271.994 264.218L359.312 273.075L391.563 15.2473Z" fill="#E6E6E6"/>
<path d="M176.918 181.543C176.938 175.329 171.189 170.313 164.209 170.6C158.328 170.842 153.376 174.992 152.722 180.258C152.241 184.132 154.019 187.654 157.02 189.902C158.724 191.178 160.175 192.706 161.424 194.354L163.314 196.847L165.657 194.675C167.184 193.26 168.872 191.976 170.776 191C174.432 189.128 176.906 185.6 176.918 181.543Z" fill="white"/>
<path d="M188.531 12.2242L291.57 2.51765L393.449 13.7947L360.815 274.69L272.458 265.729L183.23 272.528L94.5981 263.587L86.2871 0.983154L188.531 12.2242ZM201.072 234.969L273.995 188.872L274.287 188.687L290.148 180.782L276.428 171.326L183.379 141.307L165.01 131.732L137.921 189.215L187.846 227.114L201.072 234.969ZM127.303 181.157L153.07 125.509L103.01 99.4153L104.582 163.908L127.303 181.157ZM188.733 26.2722L187.268 26.1121L100.993 16.6684L102.656 84.8821L158.638 114.269L181.017 80.0572L209.171 24.367L190.194 26.1363L188.733 26.2722ZM225.911 22.8055L193.128 86.5993L170.614 120.555L188.672 130.034L282.99 160.651L302.855 174.449L326.426 162.701L314.689 19.3423L291.031 16.7359L225.911 22.8055ZM329.229 20.9434L339.316 156.275L363.696 144.124L377.57 26.2704L329.229 20.9434ZM272.809 254.911L274.101 255.042L349.731 262.742L362.004 158.492L281.083 198.503L212.286 241.627L238.916 257.439L238.849 257.523L271.511 255.01L272.809 254.911ZM183.017 261.818L219.548 259.008L180.302 235.869L104.952 179.116L106.78 254.099L183.017 261.818Z" fill="#DCDCDC"/>
<path d="M302.243 182.806C302.03 182.806 301.818 182.744 301.642 182.623L279.195 167.117L185.681 136.42C185.623 136.401 185.567 136.377 185.514 136.349L162.15 123.837L136.106 179.986C135.896 180.439 135.318 180.656 134.815 180.463C134.312 180.275 134.075 179.755 134.285 179.302L160.766 122.208C160.876 121.97 161.096 121.787 161.367 121.706C161.639 121.626 161.936 121.654 162.181 121.787L186.443 134.78L280.012 165.496C280.107 165.527 280.196 165.571 280.275 165.626L302.33 180.861L333.101 165.551L323.387 51.1798C323.346 50.6902 323.753 50.2636 324.296 50.2267C324.824 50.1826 325.314 50.5552 325.356 51.0448L335.118 165.985C335.147 166.331 334.949 166.661 334.611 166.83L302.72 182.698C302.571 182.769 302.407 182.806 302.243 182.806Z" fill="#00B73D"/>
<path d="M138.227 179.877C138.083 181.384 136.609 182.5 134.934 182.37C133.26 182.241 132.02 180.914 132.164 179.407C132.308 177.901 133.782 176.785 135.456 176.914C137.131 177.044 138.371 178.37 138.227 179.877Z" fill="#00B73D"/>
<path opacity="0.3" d="M291.57 2.51758L188.532 12.2241L183.229 272.527L272.457 265.728L291.57 2.51758Z" fill="#61676E"/>
<path d="M112.929 82.8191L106.667 74.981C106.23 74.4338 106.42 73.7273 107.091 73.4114L130.072 62.5808C130.742 62.2649 131.649 62.4539 132.086 63.002L138.348 70.8401C138.785 71.3873 138.595 72.0938 137.924 72.4097L114.943 83.2403C114.273 83.5562 113.366 83.3672 112.929 82.8191Z" fill="#1F9C49"/>
<path d="M112.158 81.8562L105.896 74.0181C105.459 73.4709 105.649 72.7644 106.32 72.4485L129.301 61.6179C129.971 61.302 130.878 61.491 131.315 62.0391L137.577 69.8772C138.014 70.4244 137.824 71.1309 137.153 71.4468L114.172 82.2774C113.502 82.5933 112.596 82.4034 112.158 81.8562Z" fill="#2CDF68"/>
<path d="M136.363 71.8195L126.033 76.6885L125.083 77.1385L120.443 79.3255L119.453 79.7935L115.743 81.5395L107.893 71.7115L108.803 71.2795L109.773 70.8295L118.703 66.6175L121.493 65.2945L128.503 61.9915L131.103 65.2405L131.763 66.0775L135.323 70.5235L135.883 71.2165L136.363 71.8195Z" fill="#BEC1C8"/>
<path d="M135.883 71.2165L135.323 70.5235L127.603 73.7095L124.863 75.4195L123.923 74.4025L121.891 69.2365L119.243 67.6795L120.163 66.1405L131.763 66.0775L131.103 65.2405L121.493 65.2945L118.703 66.6175L116.604 70.3192L112.883 73.5925L109.773 70.8304L108.803 71.2804L114.173 76.0774L119.453 79.7944L120.443 79.3264L119.723 78.8224L124.543 76.5454L125.083 77.1394L126.033 76.6894L125.473 76.0774L128.223 74.3764L135.883 71.2165ZM118.903 78.2455L114.983 75.4825L113.613 74.2495L117.554 70.6972L118.733 68.5264L120.961 69.7234L122.943 74.8174L122.963 74.8444L123.923 75.8794L118.903 78.2455Z" fill="white"/>
<path d="M55.2047 66.0244C55.0547 66.2818 54.8177 66.6976 54.6267 67.0603L54.0217 68.2069C53.6217 68.98 53.2427 69.7729 52.8807 70.5721C52.1747 72.1786 51.4707 73.7959 50.8727 75.4474C49.6917 78.7531 48.7647 82.1344 48.1477 85.5562C47.9687 86.4103 47.8837 87.2707 47.7447 88.1302C47.7227 88.2652 47.7057 88.4002 47.6857 88.5352C47.6747 88.6135 47.6627 88.6918 47.6517 88.7701C47.6367 88.8727 47.6057 88.9555 47.6467 89.059C47.7067 89.2102 47.8877 89.311 48.0337 89.3893C48.4717 89.6215 49.1777 89.86 49.9697 90.0067C51.5727 90.3109 53.4687 90.4027 55.3807 90.3946C57.2877 90.3856 59.3107 90.2731 61.2087 90.1129L62.2737 93.8083C61.2107 94.1854 60.2197 94.4716 59.1727 94.7479C58.1357 95.0233 57.0837 95.2717 56.0067 95.4634C53.8507 95.8522 51.6237 96.124 49.1517 95.9953C47.9147 95.9152 46.5937 95.7649 45.1527 95.2528C44.4357 94.9954 43.6817 94.6435 42.9507 94.135C42.2207 93.631 41.5257 92.9398 41.0177 92.1442C40.4987 91.3495 40.1997 90.4693 40.0697 89.6575C40.0027 89.2498 39.9727 88.8547 39.9697 88.4767L39.9807 87.9475L40.0057 87.5821C40.0837 86.6083 40.1117 85.6246 40.2367 84.6544C40.6617 80.7601 41.5097 76.9126 42.7497 73.1722C43.3777 71.3047 44.0557 69.4471 44.8917 67.6354C45.3057 66.7282 45.7387 65.8273 46.2057 64.9291C46.4387 64.4809 46.6737 64.03 46.9347 63.5836C47.2007 63.1219 47.4387 62.7196 47.7887 62.1724L55.2047 66.0244Z" fill="#B97964"/>
<path d="M60.5577 89.9176L66.7287 84.7102L67.1787 92.3656C67.1787 92.3656 62.6107 94.9207 59.5938 93.3556L60.5577 89.9176Z" fill="#B97964"/>
<path d="M73.7425 84.1458L73.7345 90.5727L67.1785 92.3655L66.7285 84.7101L73.7425 84.1458Z" fill="#B97964"/>
<path d="M50.1083 270.361C49.3343 270.361 48.4882 270.217 47.8962 270.091C47.8192 270.074 47.7603 270.018 47.7473 269.948C47.7333 269.878 47.7673 269.808 47.8333 269.768C48.1203 269.598 50.6593 268.117 51.6383 268.518C51.7923 268.58 51.9863 268.719 52.0333 269.02C52.0963 269.419 51.9853 269.738 51.7043 269.969C51.3463 270.261 50.7523 270.361 50.1083 270.361ZM48.4573 269.836C49.9143 270.097 51.0113 270.052 51.4363 269.704C51.6163 269.557 51.6833 269.349 51.6393 269.069C51.6153 268.918 51.5383 268.869 51.4743 268.843C50.9643 268.631 49.4943 269.272 48.4573 269.836Z" fill="#1F9C49"/>
<path d="M47.9421 270.096C47.9071 270.096 47.8731 270.088 47.8421 270.072C47.7811 270.04 47.7441 269.98 47.7441 269.917C47.7441 269.826 47.7551 267.655 48.6661 266.929C48.9081 266.737 49.1881 266.655 49.5061 266.69C50.0021 266.744 50.1371 267.026 50.1731 267.189C50.3621 268.038 48.8391 269.665 48.0401 270.073C48.0091 270.088 47.9751 270.096 47.9421 270.096ZM49.3671 267.039C49.2041 267.039 49.0601 267.091 48.9281 267.196C48.3851 267.628 48.1981 268.847 48.1521 269.57C48.9481 268.998 49.8981 267.776 49.7831 267.259C49.7641 267.173 49.7101 267.073 49.4571 267.046C49.4261 267.041 49.3971 267.039 49.3671 267.039Z" fill="#1F9C49"/>
<path d="M88.2121 270.362C87.2891 270.362 86.2871 270.22 85.5751 270.092C85.4921 270.077 85.4291 270.017 85.4171 269.943C85.4051 269.867 85.4471 269.794 85.5221 269.759C85.8991 269.583 89.2381 268.048 90.2651 268.554C90.4641 268.651 90.5801 268.816 90.6021 269.028C90.6381 269.384 90.5171 269.677 90.2441 269.898C89.8121 270.246 89.0441 270.362 88.2121 270.362ZM86.2341 269.838C88.0891 270.115 89.4671 270.044 89.9771 269.633C90.1551 269.489 90.2301 269.303 90.2051 269.061C90.1961 268.968 90.1551 268.908 90.0741 268.867C89.5161 268.592 87.6061 269.245 86.2341 269.838Z" fill="#1F9C49"/>
<path d="M85.6138 270.096C85.5738 270.096 85.5337 270.085 85.4997 270.063C85.4417 270.027 85.4108 269.966 85.4168 269.903C85.4248 269.817 85.6177 267.787 86.6707 266.999C86.9937 266.757 87.3627 266.651 87.7697 266.69C88.3187 266.741 88.4777 266.992 88.5147 267.194C88.6697 268.047 86.6947 269.674 85.6957 270.08C85.6697 270.09 85.6418 270.096 85.6138 270.096ZM87.6108 267.039C87.3588 267.039 87.1337 267.116 86.9247 267.272C86.2327 267.791 85.9547 269.008 85.8577 269.598C86.8757 269.044 88.2158 267.764 88.1238 267.252C88.1158 267.209 88.0928 267.079 87.7298 267.046C87.6888 267.041 87.6498 267.039 87.6108 267.039Z" fill="#1F9C49"/>
<path d="M76.4033 269.917H84.7793L85.3393 252.459H76.9623L76.4033 269.917Z" fill="#B97964"/>
<path d="M38.3457 269.917H46.7217L49.4147 252.459H41.0387L38.3457 269.917Z" fill="#B97964"/>
<path d="M47.2413 269.044H37.8313C37.4893 269.044 37.2113 269.259 37.1633 269.559L36.0913 276.26C35.9803 276.955 36.6443 277.612 37.4343 277.601C40.7153 277.55 42.2963 277.377 46.4343 277.377C48.9803 277.377 52.7003 277.614 56.2153 277.614C59.6543 277.614 59.9183 274.485 58.4543 274.202C51.8903 272.932 50.8533 271.179 48.6413 269.508C48.2423 269.206 47.7423 269.044 47.2413 269.044Z" fill="#151617"/>
<path d="M85.0665 269.044H75.6565C75.3145 269.044 75.0365 269.259 74.9885 269.559L73.9165 276.26C73.8055 276.955 74.4695 277.612 75.2595 277.601C78.5405 277.55 80.1215 277.377 84.2595 277.377C86.8055 277.377 92.0715 277.614 95.5875 277.614C99.0265 277.614 99.2905 274.485 97.8265 274.202C91.2625 272.932 88.6785 271.179 86.4675 269.508C86.0685 269.206 85.5675 269.044 85.0665 269.044Z" fill="#151617"/>
<path d="M85.3379 252.464L85.0509 261.463H76.6709L76.9579 252.464H85.3379Z" fill="#EA7063"/>
<path d="M41.0356 252.464H49.4156L48.0236 261.463H39.6436L41.0356 252.464Z" fill="#EA7063"/>
<path d="M95.0813 54.7104C95.0813 54.7104 99.0713 55.9758 91.0783 100.21C77.5793 100.21 63.6273 100.21 57.0593 100.21C57.6303 87.7485 57.6463 80.0652 51.0293 54.4917C51.0293 54.4917 58.1573 53.0958 65.4753 52.779C71.2003 52.5306 75.8903 52.3659 80.9233 52.7799C87.5573 53.3244 95.0813 54.7104 95.0813 54.7104Z" fill="#2CDF68"/>
<path d="M88.2793 74.1486L94.0843 80.0112L94.8203 68.5254L88.2793 74.1486Z" fill="#0E6F18"/>
<path d="M113.94 80.5656C112.666 82.1451 111.309 83.7579 109.959 85.2753C108.604 86.7855 107.19 88.2669 105.78 89.4054C105.591 89.5566 105.397 89.6997 105.205 89.8347L104.899 89.0157C104.585 88.0887 104.26 87.1716 103.972 86.2176C102.776 82.434 101.717 78.5343 100.687 74.6274L97.717 62.8743L89.332 64.4412C90.235 68.5029 91.246 72.4782 92.411 76.4652C92.982 78.456 93.586 80.4468 94.209 82.4358C94.873 84.4221 95.536 86.403 96.297 88.3956C96.661 89.3874 97.093 90.3873 97.504 91.3845L98.181 92.8938C98.271 93.099 98.474 93.5274 98.7 93.8946C98.916 94.2672 99.218 94.6866 99.593 95.1024C99.997 95.5272 100.475 95.9691 101.171 96.3471C101.851 96.7224 102.698 96.9897 103.515 97.0644C105.188 97.2057 106.388 96.7377 107.226 96.3399C108.916 95.4831 109.816 94.557 110.705 93.6498C112.404 91.8345 113.627 89.9913 114.761 88.1139C115.324 87.177 115.843 86.2293 116.323 85.2672C116.811 84.3024 117.271 83.361 117.695 82.3386L113.94 80.5656Z" fill="#B97964"/>
<path d="M95.0817 54.7104C98.5337 55.5015 100.949 68.2878 100.949 68.2878L87.6307 76.4391C87.6307 76.4391 82.3137 61.212 84.9697 57.7956C87.7357 54.2379 90.0437 53.5557 95.0817 54.7104Z" fill="#2CDF68"/>
<path d="M115.872 83.4457L123.342 81.0256L118.507 77.4553C118.507 77.4553 112.8 78.1141 112.695 82.2298L115.872 83.4457Z" fill="#B97964"/>
<path d="M127.508 78.6306L128.446 76.8765L118.507 77.4552L123.341 81.0255L127.508 78.6306Z" fill="#B97964"/>
<path d="M121.475 77.2825L120.515 76.324L121.737 73.75L120.008 73.9237L115.034 78.619L121.475 77.2825Z" fill="#B97964"/>
<path d="M82.0921 100.214C82.0921 100.214 81.2521 109.16 79.9021 121.697C79.9021 121.706 79.9021 121.706 79.9021 121.706C78.2621 137.042 75.8721 157.742 73.3421 174.086C72.9621 176.534 72.5721 178.892 72.1921 181.115C68.1121 204.668 50.0421 259.721 50.0421 259.721H38.6221C38.6221 259.721 48.0421 206.549 50.1021 183.257C55.3421 124.307 46.1621 113.876 57.0621 100.214H82.0921Z" fill="#272727"/>
<path d="M79.9026 121.697C79.9026 121.706 79.9026 121.706 79.9026 121.706C78.2626 137.042 75.8726 157.742 73.3426 174.086C70.8126 167.12 66.2056 142.764 70.2356 121.362C72.6656 108.456 77.3726 114.101 79.9026 121.697Z" fill="#22262A"/>
<path d="M91.078 100.21C91.078 100.21 97.685 158.281 97.136 181.271C96.565 205.183 86.829 259.72 86.829 259.72H75.503C75.503 259.72 77.295 206.58 76.294 183.095C75.202 157.493 66.167 100.209 66.167 100.209L91.078 100.21Z" fill="#272727"/>
<path d="M51.3618 260.245H37.3068L37.0488 255.902L52.4448 255.536L51.3618 260.245Z" fill="#2CDF68"/>
<path d="M88.2823 260.245H74.2273L73.6953 255.536H89.3653L88.2823 260.245Z" fill="#2CDF68"/>
<path d="M51.0283 54.4916C47.5483 55.1783 42.8623 66.6857 42.8623 66.6857L57.5363 74.3123C57.5363 74.3123 61.8343 65.2781 60.1713 61.3865C58.4393 57.3356 55.1413 53.6807 51.0283 54.4916Z" fill="#2CDF68"/>
<path d="M71.4118 13.6785C59.8268 12.9108 55.6788 20.4051 57.6598 29.4672C59.8278 39.3852 56.0298 43.761 51.7088 47.4123C48.3408 50.259 47.0878 55.5384 49.9188 62.4279C52.2518 68.1069 49.2898 71.3586 49.9738 76.0998C50.7088 81.1857 60.1848 83.3844 65.4748 78.3615C70.5848 73.5096 69.3838 70.2066 73.8898 68.6613C81.0698 66.1989 87.7158 62.1597 85.9598 54.7986C84.8258 50.0457 78.2508 46.7886 80.2178 40.6155C82.4418 33.6387 91.4078 15.0033 71.4118 13.6785Z" fill="#263238"/>
<path d="M56.549 98.4135L55.015 101.154C54.896 101.366 55.176 101.583 55.569 101.583H91.246C91.553 101.583 91.807 101.448 91.826 101.275L92.133 98.5341C92.154 98.3442 91.888 98.1831 91.553 98.1831H57.103C56.85 98.1831 56.626 98.2758 56.549 98.4135Z" fill="#0E6F18"/>
<path d="M61.1762 101.88H60.2532C60.0692 101.88 59.9292 101.795 59.9422 101.691L60.3752 98.1308C60.3882 98.0264 60.5482 97.9409 60.7322 97.9409H61.6552C61.8392 97.9409 61.9792 98.0264 61.9662 98.1308L61.5332 101.691C61.5202 101.795 61.3602 101.88 61.1762 101.88Z" fill="#E6E6E6"/>
<path d="M83.5405 101.88H82.6175C82.4335 101.88 82.2935 101.795 82.3065 101.691L82.7395 98.1308C82.7525 98.0264 82.9125 97.9409 83.0965 97.9409H84.0195C84.2035 97.9409 84.3435 98.0264 84.3305 98.1308L83.8975 101.691C83.8845 101.795 83.7245 101.88 83.5405 101.88Z" fill="#E6E6E6"/>
</svg>
