<svg width="427" height="351" viewBox="0 0 427 351" fill="none" xmlns="http://www.w3.org/2000/svg">
<path d="M380.664 295.367C380.664 325.81 305.57 350.489 212.936 350.489C120.303 350.489 45.208 325.81 45.208 295.367C45.208 264.924 120.303 240.245 212.936 240.245C305.57 240.245 380.664 264.924 380.664 295.367Z" fill="#252525"/>
<path d="M187.751 194.174H139.36V194.4H187.751V194.174Z" fill="#E0E0E0"/>
<path d="M366.436 194.057H327.393V194.283H366.436V194.057Z" fill="#E0E0E0"/>
<path d="M319.934 199.689H271.218V199.915H319.934V199.689Z" fill="#E0E0E0"/>
<path d="M0.0212687 298.583C-1.28772 299.742 58.2606 205.428 58.2606 205.428H69.7341L20.1976 298.593L0.0212687 298.583Z" fill="#252525"/>
<path d="M426.586 298.583C427.895 299.742 368.347 205.428 368.347 205.428H356.873L406.41 298.593L426.586 298.583Z" fill="#252525"/>
<path d="M96.6931 298.059H68.7053C63.4051 298.059 59.1084 293.762 59.1084 288.462V210.761C59.1084 205.46 63.4051 201.164 68.7053 201.164H96.6931C101.993 201.164 106.289 205.46 106.289 210.761V288.462C106.29 293.762 101.993 298.059 96.6931 298.059Z" fill="#111A1E"/>
<path d="M333.744 298.059H363.594C368.894 298.059 373.19 293.762 373.19 288.462V210.761C373.19 205.46 368.894 201.164 363.594 201.164H333.744C328.444 201.164 324.147 205.46 324.147 210.761V288.462C324.147 293.762 328.444 298.059 333.744 298.059Z" fill="#111A1E"/>
<path d="M74.1693 150.533C73.2798 150.713 69.0364 155.46 65.6066 159.443C62.5945 162.942 60.9239 167.46 60.9067 172.155C60.8489 187.92 61.2566 222.589 62.3007 228.558C63.5835 235.894 70.3201 261.568 71.9238 262.902C73.5275 264.235 84.4342 264.569 84.4342 264.569C84.4342 264.569 86.0379 177.542 84.4342 177.209C82.8305 176.875 74.1693 150.533 74.1693 150.533Z" fill="#2CDF68"/>
<path opacity="0.3" d="M74.1693 150.533C73.2798 150.713 69.0364 155.46 65.6066 159.443C62.5945 162.942 60.9239 167.46 60.9067 172.155C60.8489 187.92 61.2566 222.589 62.3007 228.558C63.5835 235.894 70.3201 261.568 71.9238 262.902C73.5275 264.235 84.4342 264.569 84.4342 264.569C84.4342 264.569 86.0379 177.542 84.4342 177.209C82.8305 176.875 74.1693 150.533 74.1693 150.533Z" fill="black"/>
<path d="M357.445 150.533C358.37 150.713 362.78 155.46 366.345 159.443C369.476 162.942 371.213 167.46 371.23 172.155C371.29 187.92 370.867 222.589 369.782 228.558C368.448 235.894 361.446 261.568 359.779 262.902C358.112 264.235 346.775 264.569 346.775 264.569C346.775 264.569 345.108 177.542 346.775 177.209C348.442 176.875 357.445 150.533 357.445 150.533Z" fill="#2CDF68"/>
<path opacity="0.3" d="M357.445 150.533C358.37 150.713 362.78 155.46 366.345 159.443C369.476 162.942 371.213 167.46 371.23 172.155C371.29 187.92 370.867 222.589 369.782 228.558C368.448 235.894 361.446 261.568 359.779 262.902C358.112 264.235 346.775 264.569 346.775 264.569C346.775 264.569 345.108 177.542 346.775 177.209C348.442 176.875 357.445 150.533 357.445 150.533Z" fill="black"/>
<path d="M358.505 230.331C358.505 230.331 360.898 160.239 358.772 146.977C356.956 135.658 325.194 72.4079 315.927 54.1209C312.963 48.2729 308.667 43.2313 303.289 39.7048C299.523 37.236 294.881 35.211 289.666 35.051C281.689 34.806 232.258 34.9688 215.942 35.0302C199.625 34.9688 150.194 34.806 142.217 35.051C137.002 35.211 132.36 37.236 128.594 39.7048C123.216 43.2304 118.92 48.2729 115.956 54.1209C106.69 72.4088 74.9266 135.658 73.1113 146.977C70.9851 160.24 73.378 230.331 73.378 230.331L69.6562 239.726L77.0989 266.802C77.0989 266.802 114.312 270.67 120.692 270.67C127.071 270.67 132.388 264.04 132.388 264.04L210.716 266.478V266.803L215.942 266.64L221.168 266.803V266.478L299.496 264.04C299.496 264.04 304.812 270.67 311.191 270.67C317.571 270.67 354.784 266.802 354.784 266.802L362.227 239.726L358.505 230.331Z" fill="#2CDF68"/>
<path opacity="0.3" d="M348.527 212.508C301.076 224.404 234.835 226.196 215.94 226.467C197.046 226.196 130.804 224.404 83.3535 212.508C83.3535 212.508 77.7659 230.956 83.3535 242.23C83.3535 242.23 165.693 256.565 215.94 255.086C266.188 256.565 348.527 242.23 348.527 242.23C354.115 230.956 348.527 212.508 348.527 212.508Z" fill="black"/>
<path d="M111.952 117.591L120.958 96.7101C122.797 92.445 126.875 89.6996 131.373 89.6996H299.927C304.271 89.6996 308.239 92.2624 310.161 96.3114L319.929 116.877L111.952 117.591Z" fill="#263238"/>
<path opacity="0.5" d="M309.05 58.1816C305.02 48.8469 296.046 42.8923 286.204 43.0297H145.678C135.836 42.8923 126.861 48.8469 122.832 58.1816L98.9238 113.575L210.715 114.796C210.715 114.864 210.715 114.91 210.715 114.91L215.941 114.853L221.167 114.91C221.167 114.91 221.167 114.863 221.167 114.796L332.959 113.575L309.05 58.1816Z" fill="white"/>
<path d="M89.8073 145.57C89.8073 145.57 79.1067 150.957 76.6541 157.648C74.2016 164.339 74.4249 176.62 76.6541 180.791C78.8834 184.962 93.6756 189.193 107.641 190.755C112.063 191.25 130.896 192.68 132.832 190.755C133.638 189.954 135.285 176.62 130.826 170.826C126.368 165.035 89.8073 145.57 89.8073 145.57Z" fill="white"/>
<path d="M89.4861 108.152C89.4861 108.152 84.5711 99.5379 82.8372 99.037C81.1024 98.5362 64.0665 99.7295 60.8646 100.1C59.7436 100.229 55.8555 101.842 56.4332 105.748C57.0117 109.655 57.8787 115.965 61.8291 117.868C65.7805 119.771 67.1709 119.27 72.9321 119.471C78.6933 119.672 87.077 119.171 87.7513 118.469C88.4257 117.768 88.5225 116.766 88.5225 116.766L91.2209 118.669L94.2086 112.259L89.4861 108.152Z" fill="#2CDF68"/>
<path d="M96.4573 236.254C100.366 236.254 103.535 232.961 103.535 228.898C103.535 224.835 100.366 221.541 96.4573 221.541C92.5485 221.541 89.3799 224.835 89.3799 228.898C89.3799 232.961 92.5485 236.254 96.4573 236.254Z" fill="#A24E3F"/>
<path d="M123.764 115.05C123.912 114.218 126.934 99.0316 128.398 91.6767C128.856 89.3787 130.706 87.7425 132.857 87.7344C142.966 87.6964 171.073 87.6033 180.773 87.7091C182.714 87.7298 184.277 89.4565 184.277 91.5782L186.795 115.05H123.764Z" fill="#263238"/>
<path d="M168.782 83.7197H147.333C142.906 83.7197 139.317 80.1308 139.317 75.704V67.1078C139.317 62.6809 142.906 59.092 147.333 59.092H168.782C173.209 59.092 176.798 62.6809 176.798 67.1078V75.704C176.798 80.1308 173.209 83.7197 168.782 83.7197Z" fill="#263238"/>
<g opacity="0.2">
<path d="M123.764 115.05C123.912 114.218 126.934 99.0316 128.398 91.6767C128.856 89.3787 130.706 87.7425 132.857 87.7344C142.966 87.6964 171.073 87.6033 180.773 87.7091C182.714 87.7298 184.277 89.4565 184.277 91.5782L186.795 115.05H123.764Z" fill="white"/>
<path d="M168.782 83.7197H147.333C142.906 83.7197 139.317 80.1308 139.317 75.704V67.1078C139.317 62.6809 142.906 59.092 147.333 59.092H168.782C173.209 59.092 176.798 62.6809 176.798 67.1078V75.704C176.798 80.1308 173.209 83.7197 168.782 83.7197Z" fill="white"/>
</g>
<path opacity="0.3" d="M91.9017 119.219L88.5226 116.766C88.4105 117.276 88.1962 118.205 87.3582 118.663C86.5753 119.091 85.1967 119.063 84.2358 119.151L82.9639 121.94C82.9639 121.94 85.5394 120.965 87.4143 120.076C89.2892 119.186 89.1337 118.14 89.1337 118.14L91.9017 119.219Z" fill="black"/>
<path opacity="0.3" d="M90.8267 105.073L89.4336 108.008C90.4623 109.281 93.8135 113.104 93.8135 113.104L90.8267 105.073Z" fill="black"/>
<path d="M341.28 145.57C341.28 145.57 352.403 150.957 354.952 157.648C357.502 164.339 357.269 176.62 354.952 180.791C352.635 184.962 337.259 189.193 322.743 190.755C318.147 191.25 298.571 192.68 296.558 190.755C295.72 189.954 294.008 176.62 298.643 170.826C303.277 165.035 341.28 145.57 341.28 145.57Z" fill="white"/>
<path d="M341.614 108.152C341.614 108.152 346.722 99.5379 348.525 99.037C350.328 98.5362 368.036 99.7295 371.364 100.1C372.53 100.229 376.571 101.842 375.97 105.748C375.369 109.655 374.468 115.965 370.361 117.868C366.254 119.771 364.809 119.27 358.821 119.471C352.832 119.672 344.118 119.171 343.416 118.469C342.715 117.768 342.615 116.766 342.615 116.766L339.81 118.669L336.705 112.259L341.614 108.152Z" fill="#2CDF68"/>
<path opacity="0.3" d="M218.344 177.613V177.565C218.344 177.565 216.376 177.599 213.013 177.613C209.651 177.599 207.682 177.565 207.682 177.565V177.613C188.377 177.539 148.061 176.616 131.191 170.451C131.191 170.451 135.701 185.771 139.46 190.112C143.219 194.453 147.479 197.517 157.25 198.538C165.342 199.384 189.172 200.28 207.682 200.853C207.685 200.853 207.688 200.853 207.691 200.853C211.532 200.972 215.149 200.77 218.343 200.858C237.136 200.64 260.648 199.387 268.776 198.538C278.548 197.517 282.808 194.453 286.565 190.112C290.323 185.771 294.834 170.451 294.834 170.451C277.967 176.616 237.65 177.539 218.344 177.613Z" fill="black"/>
<path d="M339.565 234.1C342.438 231.227 342.438 226.569 339.565 223.696C336.692 220.823 332.034 220.823 329.161 223.696C326.288 226.569 326.288 231.227 329.161 234.1C332.034 236.973 336.692 236.973 339.565 234.1Z" fill="#A24E3F"/>
<path d="M301.096 112.866C300.94 112.008 297.762 96.3386 296.223 88.7495C295.742 86.3783 293.796 84.6896 291.535 84.6815C280.905 84.6417 251.352 84.5459 241.153 84.6553C239.112 84.677 237.469 86.4579 237.469 88.6474L234.82 112.866H301.096Z" fill="#263238"/>
<path opacity="0.2" d="M301.096 112.866C300.94 112.008 297.762 96.3386 296.223 88.7495C295.742 86.3783 293.796 84.6896 291.535 84.6815C280.905 84.6417 251.352 84.5459 241.153 84.6553C239.112 84.677 237.469 86.4579 237.469 88.6474L234.82 112.866H301.096Z" fill="white"/>
<path d="M255.387 82.1911H280.53C284.957 82.1911 288.546 78.6022 288.546 74.1753V63.6573C288.546 59.2304 284.957 55.6415 280.53 55.6415H255.387C250.96 55.6415 247.371 59.2304 247.371 63.6573V74.1753C247.371 78.6022 250.96 82.1911 255.387 82.1911Z" fill="#263238"/>
<path opacity="0.2" d="M255.387 82.1911H280.53C284.957 82.1911 288.546 78.6022 288.546 74.1753V63.6573C288.546 59.2304 284.957 55.6415 280.53 55.6415H255.387C250.96 55.6415 247.371 59.2304 247.371 63.6573V74.1753C247.371 78.6022 250.96 82.1911 255.387 82.1911Z" fill="white"/>
<path opacity="0.3" d="M339.104 119.219L342.616 116.766C342.733 117.276 342.955 118.205 343.826 118.663C344.641 119.091 346.072 119.063 347.071 119.151L348.393 121.94C348.393 121.94 345.716 120.965 343.767 120.076C341.818 119.186 341.98 118.14 341.98 118.14L339.104 119.219Z" fill="black"/>
<path opacity="0.3" d="M340.219 105.073L341.668 108.008C340.598 109.281 337.114 113.104 337.114 113.104L340.219 105.073Z" fill="black"/>
<path d="M248.52 87.134C248.717 87.4296 252.757 105.17 252.757 105.17L248.576 118.659H231.097C231.097 118.659 241.139 94.2539 243.05 91.1008C244.935 87.9874 248.52 87.134 248.52 87.134Z" fill="#2CDF68"/>
<path d="M287.397 87.134C287.2 87.4296 283.16 105.17 283.16 105.17L287.342 118.659H304.821C304.821 118.659 294.778 94.2539 292.867 91.1008C290.982 87.9874 287.397 87.134 287.397 87.134Z" fill="#2CDF68"/>
<path d="M287.882 87.1341C283.954 86.8755 264.555 83.7305 248.521 87.1341L248.585 118.658H290.698L287.882 87.1341Z" fill="#2CDF68"/>
<path d="M279.072 58.1554C279.072 58.1554 287.581 53.3633 282.53 48.224C278.547 44.1696 275.022 44.7617 269.692 45.7317C256.631 48.1101 257.391 53.5522 257.391 53.5522L279.072 58.1554Z" fill="#263238"/>
<path d="M262.439 85.5601C262.439 85.5601 263.137 80.5501 260.204 71.8663C260.204 71.8573 260.658 71.6313 260.658 71.6213C260.253 70.4063 259.83 69.2863 259.434 68.3163C259.425 68.2883 259.425 68.2783 259.425 68.2783L271.779 75.1903C271.619 78.0153 272.865 83.4059 273.567 85.6749C273.567 85.6749 275.267 89.7655 269.746 90.1877C265.711 90.4968 262.439 85.5601 262.439 85.5601Z" fill="#B97964"/>
<path opacity="0.2" d="M272.157 79.1362L265.165 77.877C265.887 80.0032 267.904 82.472 272.732 82.4711C272.732 82.4711 272.147 80.0818 272.157 79.1362Z" fill="black"/>
<path d="M259.077 62.4386C260.221 70.0303 260.713 74.3352 264.918 77.8771C271.244 83.2034 280.161 78.9799 281.311 71.1766C282.347 64.1525 280.303 52.9176 272.554 50.6124C264.92 48.3407 257.934 54.8468 259.077 62.4386Z" fill="#B97964"/>
<path d="M257.299 53.3452C266.62 44.3676 276.101 49.4038 279.732 54.3252L263.47 54.5177C262.759 54.5051 262.356 55.2454 262.51 56.5987C262.51 56.5987 268.149 66.7091 260.376 72.3835C257.596 71.3195 257.03 66.6937 255.946 64.0061C254.331 60.0023 252.29 54.1082 257.299 53.3452Z" fill="#263238"/>
<path d="M256.625 69.0676C257.409 70.9796 259.005 72.341 260.586 72.9593C262.964 73.8896 263.593 71.324 263.165 68.9383C262.779 66.7904 261.915 64.2095 259.417 64.299C256.955 64.3885 255.728 66.8827 256.625 69.0676Z" fill="#B97964"/>
<path d="M269.333 63.5432C269.401 64.3243 269.871 64.9173 270.382 64.8667C270.893 64.8169 271.252 64.1426 271.182 63.3615C271.114 62.5805 270.643 61.9874 270.133 62.038C269.622 62.0878 269.264 62.7621 269.333 63.5432Z" fill="#263238"/>
<path d="M277.224 63.2865C277.293 64.0675 277.763 64.6606 278.274 64.6099C278.785 64.5602 279.144 63.8858 279.074 63.1048C279.005 62.3237 278.535 61.7307 278.025 61.7813C277.514 61.8311 277.155 62.5054 277.224 63.2865Z" fill="#263238"/>
<path d="M275.342 62.9393C275.342 62.9393 278.158 66.6023 279.09 68.1129C278.089 69.1914 276.176 68.9039 276.176 68.9039L275.342 62.9393Z" fill="#A24E3F"/>
<path d="M267.963 60.1641C268.085 60.2021 268.224 60.175 268.325 60.08C269.528 58.9591 270.846 59.2592 270.859 59.2619C271.056 59.3089 271.256 59.1878 271.305 58.9916C271.354 58.7955 271.234 58.5975 271.037 58.5505C270.968 58.5333 269.316 58.1572 267.825 59.5485C267.675 59.6877 267.667 59.9191 267.806 60.0656C267.851 60.1135 267.905 60.146 267.963 60.1641Z" fill="#263238"/>
<path d="M273.837 71.6186C272.57 71.7397 271.532 71.1946 270.468 70.3376" stroke="#263238" stroke-width="0.75" stroke-miterlimit="10" stroke-linecap="round" stroke-linejoin="round"/>
<path opacity="0.2" d="M258.182 66.803C258.449 66.3203 259.061 66.097 259.607 66.1811C260.152 66.2651 260.63 66.6078 260.994 67.0218C261.432 67.519 261.737 68.1319 261.869 68.781" stroke="black" stroke-width="0.5" stroke-miterlimit="10" stroke-linecap="round" stroke-linejoin="round"/>
<path d="M280.962 59.5566C281.029 59.5358 281.09 59.496 281.137 59.4372C281.265 59.2799 281.244 59.0476 281.088 58.9192C279.527 57.631 277.918 58.1409 277.843 58.1545C277.65 58.2168 277.543 58.4239 277.602 58.6173C277.662 58.8099 277.865 58.9165 278.058 58.8569C278.124 58.8334 279.368 58.4555 280.622 59.4897C280.72 59.5719 280.849 59.5918 280.962 59.5566Z" fill="#263238"/>
<g opacity="0.2">
<path d="M269.855 68.5731C269.182 69.3017 268.822 70.3106 268.883 71.3005C268.883 71.3005 268.43 70.5158 268.63 69.6868C268.831 68.8579 269.855 68.5731 269.855 68.5731Z" fill="black"/>
</g>
<path d="M272.43 81.5608L276.834 85.523L269.481 94.441L258.857 85.4842L262.006 80.8539L268.647 86.3999L272.43 81.5608Z" fill="#2CDF68"/>
<path opacity="0.8" d="M272.43 81.5608L276.834 85.523L269.481 94.441L258.857 85.4842L262.006 80.8539L268.647 86.3999L272.43 81.5608Z" fill="white"/>
<path d="M246.357 120.258C246.357 107.545 256.663 97.2389 269.377 97.2389C282.091 97.2389 292.396 107.545 292.396 120.258" stroke="#263238" stroke-width="4" stroke-miterlimit="10"/>
<path d="M251.917 99.4926C251.917 99.4926 249.079 97.6005 248.649 100.095C248.649 100.095 245.638 100.095 245.724 102.847C245.724 102.847 243.316 103.192 244.348 105.943C244.348 105.943 242.456 106.46 243.746 108.868C245.036 111.276 247.53 113.599 248.821 113.341C250.111 113.083 250.111 111.363 250.111 111.363C250.111 111.363 253.552 112.309 252.864 109.471C252.864 109.471 253.896 110.331 254.584 108.955C255.272 107.579 254.584 106.891 254.584 106.891C254.584 106.891 255.445 107.771 256.047 106.084C256.648 104.395 253.379 100.697 251.917 99.4926Z" fill="#B97964"/>
<path d="M283.932 97.9269C283.932 97.9269 286.771 96.0348 287.201 98.5289C287.201 98.5289 290.211 98.5289 290.126 101.282C290.126 101.282 292.534 101.626 291.501 104.378C291.501 104.378 293.393 104.894 292.103 107.302C290.813 109.711 288.319 112.033 287.028 111.775C285.738 111.518 285.738 109.797 285.738 109.797C285.738 109.797 282.298 110.744 282.986 107.905C282.986 107.905 281.953 108.766 281.265 107.389C280.577 106.013 281.265 105.324 281.265 105.324C281.265 105.324 280.406 106.205 279.804 104.517C279.202 102.829 282.47 99.131 283.932 97.9269Z" fill="#B97964"/>
<path d="M333.004 113.209L210.873 114.045L99.1822 113.106L95.3936 121.853L210.873 122.075L336.791 121.853L333.004 113.209Z" fill="#263238"/>
<path d="M200.976 177.479L202.588 185.808C213.195 187.582 223.626 187.701 233.846 185.808L235.228 177.479C225.141 177.813 213.513 177.577 200.976 177.479Z" fill="#263238"/>
<path d="M225.358 51.8067C225.181 50.5755 225.014 49.2511 224.832 48.3046C224.688 47.5471 224.021 47.0038 223.25 47.0038H201.301C200.529 47.0038 199.863 47.5462 199.718 48.3046C199.537 49.2511 199.369 50.5755 199.192 51.8076C198.94 53.5713 200.301 55.1506 202.082 55.1506H209.234H215.315H222.467C224.249 55.1497 225.61 53.5695 225.358 51.8067Z" fill="#263238"/>
<path d="M213.688 43.0306H210.863V47.9846H213.688V43.0306Z" fill="#263238"/>
<path opacity="0.3" d="M112.849 81.494C112.83 81.5356 202.387 43.0288 202.387 43.0288H227.156L106.083 97.1685L112.849 81.494Z" fill="white"/>
<path opacity="0.3" d="M102.594 105.073L251.012 43.028H286.204L119.221 113.407L99.127 113.104L102.594 105.073Z" fill="white"/>
<path d="M364.962 13.026C359.304 1.71149 345.545 -2.8727 334.231 2.78544C323.381 8.21215 318.725 21.086 323.352 32.1121L320.22 38.629L327.275 38.4012C333.978 46.031 345.213 48.5134 354.723 43.7574C366.036 38.0993 370.621 24.3404 364.962 13.026Z" fill="#2CDF68"/>
<path opacity="0.6" d="M364.962 13.026C359.304 1.71149 345.545 -2.8727 334.231 2.78544C323.381 8.21215 318.725 21.086 323.352 32.1121L320.22 38.629L327.275 38.4012C333.978 46.031 345.213 48.5134 354.723 43.7574C366.036 38.0993 370.621 24.3404 364.962 13.026Z" fill="white"/>
<path d="M335.663 21.2623C335.79 20.1151 336.343 19.0393 337.108 18.176C337.859 17.3299 338.84 16.6618 339.943 16.4177C341.116 16.1583 342.391 16.4042 343.384 17.0804C343.974 17.4827 344.459 18.0341 344.794 18.6642C345.12 18.1028 345.565 17.611 346.099 17.2422C347.086 16.5588 348.361 16.3038 349.535 16.5561C350.64 16.7929 351.626 17.4546 352.382 18.2953C353.154 19.1532 353.714 20.2254 353.849 21.3717C354.018 22.8072 353.746 24.3802 353.005 25.6214C352.223 26.9322 350.956 27.9935 349.651 28.7863C347.457 30.1188 344.568 31.7866 344.568 31.7866C344.568 31.7866 342.115 29.9651 339.912 28.6479C338.601 27.8651 337.326 26.8128 336.535 25.5075C335.787 24.2699 335.504 22.6987 335.663 21.2623Z" fill="#2CDF68"/>
</svg>
